# xmcd CD database file
# Copyright (C) 1993-1998 Ti Kan
#
# Track frame offsets:
#	183
#	9335
#	22043
#	38480
#	51778
#	67655
#	84913
#	98543
#	116060
#	128473
#	141468
#	160540
#	181063
#	201235
#	212815
#	230358
#
# Disc length: 3320 seconds
#
# Revision: 1
# Processed by: cddbd v1.4b41PL1 Copyright (c) Steve Scherf et al.
# Submitted via: CDValet v3.31 - Copyright (c) 1997 Greg Leichner
#
DISCID=c00cf610
DTITLE=Shirley Bassey - I Am What I Am
DYEAR=1900
DGENRE=
TTITLE0=Big Spender
TTITLE1=Goldfinger
TTITLE2=Kiss Me Honey Honey Kiss Me
TTITLE3=What Now My Love
TTITLE4=Something
TTITLE5=As Long As He Needs Me
TTITLE6=As I Love You
TTITLE7=Send in The Clowns
TTITLE8=I Am What I Am
TTITLE9=I (Who Have Nothing)
TTITLE10=Natalie
TTITLE11=And I Love You So
TTITLE12=Never Never Never
TTITLE13=For All We Know
TTITLE14=This Is My Life
TTITLE15=If You  Don't Understand
EXTD=
EXTT0=
EXTT1=
EXTT2=
EXTT3=
EXTT4=
EXTT5=
EXTT6=
EXTT7=
EXTT8=
EXTT9=
EXTT10=
EXTT11=
EXTT12=
EXTT13=
EXTT14=
EXTT15=
PLAYORDER=
